<mxfile host="Electron" modified="2025-02-06T10:19:02.313Z" agent="Mozilla/5.0 (Macintosh; Intel Mac OS X 10_15_7) AppleWebKit/537.36 (KHTML, like Gecko) draw.io/22.1.2 Chrome/114.0.5735.289 Electron/25.9.4 Safari/537.36" etag="QfluoHK1wTLWGAr02PZp" version="22.1.2" type="device">
  <diagram name="Page-1" id="Jac12B3GyhSqcuamqQ2v">
    <mxGraphModel dx="2727" dy="1239" grid="1" gridSize="10" guides="1" tooltips="1" connect="1" arrows="1" fold="1" page="1" pageScale="1" pageWidth="850" pageHeight="1100" math="0" shadow="0">
      <root>
        <mxCell id="0" />
        <mxCell id="1" parent="0" />
        <mxCell id="jLUdtxUv7IMNn55z4BII-63" value="" style="rounded=0;whiteSpace=wrap;html=1;" vertex="1" parent="1">
          <mxGeometry x="-320" y="40" width="1030" height="865" as="geometry" />
        </mxCell>
        <mxCell id="jLUdtxUv7IMNn55z4BII-55" value="VPC" style="sketch=0;outlineConnect=0;html=1;whiteSpace=wrap;fontSize=12;fontStyle=0;shape=mxgraph.aws4.group;grIcon=mxgraph.aws4.group_vpc;strokeColor=#6c8ebf;fillColor=#dae8fc;verticalAlign=top;align=left;spacingLeft=30;dashed=0;" vertex="1" parent="1">
          <mxGeometry x="-210" y="230" width="910" height="660" as="geometry" />
        </mxCell>
        <mxCell id="jLUdtxUv7IMNn55z4BII-1" value="" style="rounded=1;whiteSpace=wrap;html=1;fillColor=#f8cecc;strokeColor=#b85450;dashed=1;dashPattern=12 12;glass=0;arcSize=7;" vertex="1" parent="1">
          <mxGeometry x="40" y="430" width="640" height="430" as="geometry" />
        </mxCell>
        <mxCell id="jLUdtxUv7IMNn55z4BII-4" style="edgeStyle=orthogonalEdgeStyle;rounded=0;orthogonalLoop=1;jettySize=auto;html=1;" edge="1" parent="1" source="jLUdtxUv7IMNn55z4BII-2" target="jLUdtxUv7IMNn55z4BII-3">
          <mxGeometry relative="1" as="geometry" />
        </mxCell>
        <mxCell id="jLUdtxUv7IMNn55z4BII-2" value="Nginx Ingress&lt;br&gt;Controller" style="rounded=0;whiteSpace=wrap;html=1;" vertex="1" parent="1">
          <mxGeometry x="120" y="480" width="120" height="60" as="geometry" />
        </mxCell>
        <mxCell id="jLUdtxUv7IMNn55z4BII-46" style="edgeStyle=orthogonalEdgeStyle;rounded=0;orthogonalLoop=1;jettySize=auto;html=1;entryX=0;entryY=0.5;entryDx=0;entryDy=0;" edge="1" parent="1" source="jLUdtxUv7IMNn55z4BII-3" target="jLUdtxUv7IMNn55z4BII-45">
          <mxGeometry relative="1" as="geometry" />
        </mxCell>
        <mxCell id="jLUdtxUv7IMNn55z4BII-3" value="Backend Container SVC" style="rounded=0;whiteSpace=wrap;html=1;" vertex="1" parent="1">
          <mxGeometry x="290" y="480" width="120" height="60" as="geometry" />
        </mxCell>
        <mxCell id="jLUdtxUv7IMNn55z4BII-8" value="" style="rounded=0;whiteSpace=wrap;html=1;" vertex="1" parent="1">
          <mxGeometry x="110" y="590" width="530" height="240" as="geometry" />
        </mxCell>
        <mxCell id="jLUdtxUv7IMNn55z4BII-20" value="" style="group" vertex="1" connectable="0" parent="1">
          <mxGeometry x="150" y="610" width="120" height="180" as="geometry" />
        </mxCell>
        <mxCell id="jLUdtxUv7IMNn55z4BII-19" value="" style="rounded=0;whiteSpace=wrap;html=1;fillColor=#fff2cc;strokeColor=#d6b656;" vertex="1" parent="jLUdtxUv7IMNn55z4BII-20">
          <mxGeometry width="120" height="180" as="geometry" />
        </mxCell>
        <mxCell id="jLUdtxUv7IMNn55z4BII-9" value="" style="rounded=1;whiteSpace=wrap;html=1;arcSize=6;" vertex="1" parent="jLUdtxUv7IMNn55z4BII-20">
          <mxGeometry x="9.473684210526317" y="8.639999999999999" width="101.05263157894738" height="79.19999999999999" as="geometry" />
        </mxCell>
        <mxCell id="jLUdtxUv7IMNn55z4BII-10" value="Private subnet" style="text;html=1;strokeColor=#82b366;fillColor=#d5e8d4;align=center;verticalAlign=middle;whiteSpace=wrap;rounded=0;" vertex="1" parent="jLUdtxUv7IMNn55z4BII-20">
          <mxGeometry x="22.10526315789474" y="15.84" width="75.78947368421053" height="21.599999999999998" as="geometry" />
        </mxCell>
        <mxCell id="jLUdtxUv7IMNn55z4BII-11" value="" style="outlineConnect=0;dashed=0;verticalLabelPosition=bottom;verticalAlign=top;align=center;html=1;shape=mxgraph.aws3.route_table;fillColor=#F58536;gradientColor=none;" vertex="1" parent="jLUdtxUv7IMNn55z4BII-20">
          <mxGeometry x="66.3157894736842" y="47.879999999999995" width="31.578947368421055" height="28.8" as="geometry" />
        </mxCell>
        <mxCell id="jLUdtxUv7IMNn55z4BII-12" value="" style="outlineConnect=0;dashed=0;verticalLabelPosition=bottom;verticalAlign=top;align=center;html=1;shape=mxgraph.aws3.vpc_nat_gateway;fillColor=#F58534;gradientColor=none;" vertex="1" parent="jLUdtxUv7IMNn55z4BII-20">
          <mxGeometry x="22.10526315789474" y="43.919999999999995" width="31.578947368421055" height="36.71999999999999" as="geometry" />
        </mxCell>
        <mxCell id="jLUdtxUv7IMNn55z4BII-16" value="" style="rounded=0;whiteSpace=wrap;html=1;fillColor=#dae8fc;strokeColor=#6c8ebf;" vertex="1" parent="jLUdtxUv7IMNn55z4BII-20">
          <mxGeometry x="9.473684210526317" y="95.03999999999999" width="101.05263157894738" height="72" as="geometry" />
        </mxCell>
        <mxCell id="jLUdtxUv7IMNn55z4BII-17" value="" style="outlineConnect=0;dashed=0;verticalLabelPosition=bottom;verticalAlign=top;align=center;html=1;shape=mxgraph.aws3.ec2;fillColor=#F58534;gradientColor=none;" vertex="1" parent="jLUdtxUv7IMNn55z4BII-20">
          <mxGeometry x="34.73684210526316" y="102.24" width="37.89473684210527" height="36" as="geometry" />
        </mxCell>
        <mxCell id="jLUdtxUv7IMNn55z4BII-18" value="Private worker Node" style="text;html=1;strokeColor=none;fillColor=none;align=center;verticalAlign=middle;whiteSpace=wrap;rounded=0;fontStyle=1" vertex="1" parent="jLUdtxUv7IMNn55z4BII-20">
          <mxGeometry x="21.473684210526315" y="145.44" width="75.78947368421053" height="14.4" as="geometry" />
        </mxCell>
        <mxCell id="jLUdtxUv7IMNn55z4BII-23" value="" style="group" vertex="1" connectable="0" parent="1">
          <mxGeometry x="460" y="610" width="120" height="180" as="geometry" />
        </mxCell>
        <mxCell id="jLUdtxUv7IMNn55z4BII-24" value="" style="rounded=0;whiteSpace=wrap;html=1;fillColor=#fff2cc;strokeColor=#d6b656;" vertex="1" parent="jLUdtxUv7IMNn55z4BII-23">
          <mxGeometry width="120" height="180" as="geometry" />
        </mxCell>
        <mxCell id="jLUdtxUv7IMNn55z4BII-25" value="" style="rounded=1;whiteSpace=wrap;html=1;arcSize=6;" vertex="1" parent="jLUdtxUv7IMNn55z4BII-23">
          <mxGeometry x="9.473684210526317" y="8.639999999999999" width="101.05263157894738" height="79.19999999999999" as="geometry" />
        </mxCell>
        <mxCell id="jLUdtxUv7IMNn55z4BII-26" value="Private subnet" style="text;html=1;strokeColor=#82b366;fillColor=#d5e8d4;align=center;verticalAlign=middle;whiteSpace=wrap;rounded=0;" vertex="1" parent="jLUdtxUv7IMNn55z4BII-23">
          <mxGeometry x="22.10526315789474" y="15.84" width="75.78947368421053" height="21.599999999999998" as="geometry" />
        </mxCell>
        <mxCell id="jLUdtxUv7IMNn55z4BII-27" value="" style="outlineConnect=0;dashed=0;verticalLabelPosition=bottom;verticalAlign=top;align=center;html=1;shape=mxgraph.aws3.route_table;fillColor=#F58536;gradientColor=none;" vertex="1" parent="jLUdtxUv7IMNn55z4BII-23">
          <mxGeometry x="66.3157894736842" y="47.879999999999995" width="31.578947368421055" height="28.8" as="geometry" />
        </mxCell>
        <mxCell id="jLUdtxUv7IMNn55z4BII-28" value="" style="outlineConnect=0;dashed=0;verticalLabelPosition=bottom;verticalAlign=top;align=center;html=1;shape=mxgraph.aws3.vpc_nat_gateway;fillColor=#F58534;gradientColor=none;" vertex="1" parent="jLUdtxUv7IMNn55z4BII-23">
          <mxGeometry x="22.10526315789474" y="43.919999999999995" width="31.578947368421055" height="36.71999999999999" as="geometry" />
        </mxCell>
        <mxCell id="jLUdtxUv7IMNn55z4BII-29" value="" style="rounded=0;whiteSpace=wrap;html=1;fillColor=#dae8fc;strokeColor=#6c8ebf;" vertex="1" parent="jLUdtxUv7IMNn55z4BII-23">
          <mxGeometry x="9.473684210526317" y="95.03999999999999" width="101.05263157894738" height="72" as="geometry" />
        </mxCell>
        <mxCell id="jLUdtxUv7IMNn55z4BII-30" value="" style="outlineConnect=0;dashed=0;verticalLabelPosition=bottom;verticalAlign=top;align=center;html=1;shape=mxgraph.aws3.ec2;fillColor=#F58534;gradientColor=none;" vertex="1" parent="jLUdtxUv7IMNn55z4BII-23">
          <mxGeometry x="34.73684210526316" y="102.24" width="37.89473684210527" height="36" as="geometry" />
        </mxCell>
        <mxCell id="jLUdtxUv7IMNn55z4BII-31" value="Private worker Node" style="text;html=1;strokeColor=none;fillColor=none;align=center;verticalAlign=middle;whiteSpace=wrap;rounded=0;fontStyle=1" vertex="1" parent="jLUdtxUv7IMNn55z4BII-23">
          <mxGeometry x="21.473684210526315" y="145.44" width="75.78947368421053" height="14.4" as="geometry" />
        </mxCell>
        <mxCell id="jLUdtxUv7IMNn55z4BII-32" value="" style="group" vertex="1" connectable="0" parent="1">
          <mxGeometry x="305" y="610" width="120" height="180" as="geometry" />
        </mxCell>
        <mxCell id="jLUdtxUv7IMNn55z4BII-33" value="" style="rounded=0;whiteSpace=wrap;html=1;fillColor=#fff2cc;strokeColor=#d6b656;" vertex="1" parent="jLUdtxUv7IMNn55z4BII-32">
          <mxGeometry width="120" height="180" as="geometry" />
        </mxCell>
        <mxCell id="jLUdtxUv7IMNn55z4BII-34" value="" style="rounded=1;whiteSpace=wrap;html=1;arcSize=6;" vertex="1" parent="jLUdtxUv7IMNn55z4BII-32">
          <mxGeometry x="9.473684210526317" y="8.639999999999999" width="101.05263157894738" height="79.19999999999999" as="geometry" />
        </mxCell>
        <mxCell id="jLUdtxUv7IMNn55z4BII-35" value="Private subnet" style="text;html=1;strokeColor=#82b366;fillColor=#d5e8d4;align=center;verticalAlign=middle;whiteSpace=wrap;rounded=0;" vertex="1" parent="jLUdtxUv7IMNn55z4BII-32">
          <mxGeometry x="22.10526315789474" y="15.84" width="75.78947368421053" height="21.599999999999998" as="geometry" />
        </mxCell>
        <mxCell id="jLUdtxUv7IMNn55z4BII-36" value="" style="outlineConnect=0;dashed=0;verticalLabelPosition=bottom;verticalAlign=top;align=center;html=1;shape=mxgraph.aws3.route_table;fillColor=#F58536;gradientColor=none;" vertex="1" parent="jLUdtxUv7IMNn55z4BII-32">
          <mxGeometry x="66.3157894736842" y="47.879999999999995" width="31.578947368421055" height="28.8" as="geometry" />
        </mxCell>
        <mxCell id="jLUdtxUv7IMNn55z4BII-37" value="" style="outlineConnect=0;dashed=0;verticalLabelPosition=bottom;verticalAlign=top;align=center;html=1;shape=mxgraph.aws3.vpc_nat_gateway;fillColor=#F58534;gradientColor=none;" vertex="1" parent="jLUdtxUv7IMNn55z4BII-32">
          <mxGeometry x="22.10526315789474" y="43.919999999999995" width="31.578947368421055" height="36.71999999999999" as="geometry" />
        </mxCell>
        <mxCell id="jLUdtxUv7IMNn55z4BII-38" value="" style="rounded=0;whiteSpace=wrap;html=1;fillColor=#dae8fc;strokeColor=#6c8ebf;" vertex="1" parent="jLUdtxUv7IMNn55z4BII-32">
          <mxGeometry x="9.473684210526317" y="95.03999999999999" width="101.05263157894738" height="72" as="geometry" />
        </mxCell>
        <mxCell id="jLUdtxUv7IMNn55z4BII-39" value="" style="outlineConnect=0;dashed=0;verticalLabelPosition=bottom;verticalAlign=top;align=center;html=1;shape=mxgraph.aws3.ec2;fillColor=#F58534;gradientColor=none;" vertex="1" parent="jLUdtxUv7IMNn55z4BII-32">
          <mxGeometry x="34.73684210526316" y="102.24" width="37.89473684210527" height="36" as="geometry" />
        </mxCell>
        <mxCell id="jLUdtxUv7IMNn55z4BII-40" value="Private worker Node" style="text;html=1;strokeColor=none;fillColor=none;align=center;verticalAlign=middle;whiteSpace=wrap;rounded=0;fontStyle=1" vertex="1" parent="jLUdtxUv7IMNn55z4BII-32">
          <mxGeometry x="21.473684210526315" y="145.44" width="75.78947368421053" height="14.4" as="geometry" />
        </mxCell>
        <mxCell id="jLUdtxUv7IMNn55z4BII-7" value="Amazon EKS" style="sketch=0;outlineConnect=0;fontColor=#232F3E;gradientColor=none;strokeColor=#ffffff;fillColor=#232F3E;dashed=0;verticalLabelPosition=middle;verticalAlign=bottom;align=center;html=1;whiteSpace=wrap;fontSize=10;fontStyle=1;spacing=3;shape=mxgraph.aws4.productIcon;prIcon=mxgraph.aws4.eks;" vertex="1" parent="1">
          <mxGeometry x="590" y="570" width="50" height="68" as="geometry" />
        </mxCell>
        <mxCell id="jLUdtxUv7IMNn55z4BII-42" value="ap-southeast-1a" style="text;html=1;strokeColor=none;fillColor=none;align=center;verticalAlign=middle;whiteSpace=wrap;rounded=0;fontStyle=1" vertex="1" parent="1">
          <mxGeometry x="165" y="800" width="90" height="10" as="geometry" />
        </mxCell>
        <mxCell id="jLUdtxUv7IMNn55z4BII-43" value="ap-southeast-1b" style="text;html=1;strokeColor=none;fillColor=none;align=center;verticalAlign=middle;whiteSpace=wrap;rounded=0;fontStyle=1" vertex="1" parent="1">
          <mxGeometry x="320" y="800" width="90" height="10" as="geometry" />
        </mxCell>
        <mxCell id="jLUdtxUv7IMNn55z4BII-44" value="ap-southeast-1c" style="text;html=1;strokeColor=none;fillColor=none;align=center;verticalAlign=middle;whiteSpace=wrap;rounded=0;fontStyle=1" vertex="1" parent="1">
          <mxGeometry x="475" y="800" width="90" height="10" as="geometry" />
        </mxCell>
        <mxCell id="jLUdtxUv7IMNn55z4BII-45" value="Application Pod" style="rounded=0;whiteSpace=wrap;html=1;" vertex="1" parent="1">
          <mxGeometry x="445" y="480" width="120" height="60" as="geometry" />
        </mxCell>
        <mxCell id="jLUdtxUv7IMNn55z4BII-47" value="Application LoadBalancer" style="outlineConnect=0;dashed=0;verticalLabelPosition=bottom;verticalAlign=top;align=center;html=1;shape=mxgraph.aws3.application_load_balancer;fillColor=#F58536;gradientColor=none;" vertex="1" parent="1">
          <mxGeometry x="-160" y="483" width="69" height="72" as="geometry" />
        </mxCell>
        <mxCell id="jLUdtxUv7IMNn55z4BII-48" style="edgeStyle=orthogonalEdgeStyle;rounded=0;orthogonalLoop=1;jettySize=auto;html=1;entryX=-0.002;entryY=0.205;entryDx=0;entryDy=0;entryPerimeter=0;" edge="1" parent="1" source="jLUdtxUv7IMNn55z4BII-47" target="jLUdtxUv7IMNn55z4BII-1">
          <mxGeometry relative="1" as="geometry" />
        </mxCell>
        <mxCell id="jLUdtxUv7IMNn55z4BII-50" value="" style="shape=image;verticalLabelPosition=bottom;labelBackgroundColor=default;verticalAlign=top;aspect=fixed;imageAspect=0;image=https://seeklogo.com/images/C/cloudflare-logo-5316BE5408-seeklogo.com.png;" vertex="1" parent="1">
          <mxGeometry x="-490" y="493.5" width="150" height="51" as="geometry" />
        </mxCell>
        <mxCell id="jLUdtxUv7IMNn55z4BII-53" value="" style="shape=image;verticalLabelPosition=bottom;labelBackgroundColor=default;verticalAlign=top;aspect=fixed;imageAspect=0;image=https://www.logo.wine/a/logo/Amazon_Web_Services/Amazon_Web_Services-Logo.wine.svg;" vertex="1" parent="1">
          <mxGeometry x="-320" y="40" width="60" height="40" as="geometry" />
        </mxCell>
        <mxCell id="jLUdtxUv7IMNn55z4BII-54" value="Infra TF Files" style="sketch=0;outlineConnect=0;fontColor=#232F3E;gradientColor=none;strokeColor=#ffffff;fillColor=#232F3E;dashed=0;verticalLabelPosition=middle;verticalAlign=bottom;align=center;html=1;whiteSpace=wrap;fontSize=10;fontStyle=1;spacing=3;shape=mxgraph.aws4.productIcon;prIcon=mxgraph.aws4.s3;" vertex="1" parent="1">
          <mxGeometry x="10" y="70" width="80" height="100" as="geometry" />
        </mxCell>
        <mxCell id="jLUdtxUv7IMNn55z4BII-56" value="Public subnet" style="points=[[0,0],[0.25,0],[0.5,0],[0.75,0],[1,0],[1,0.25],[1,0.5],[1,0.75],[1,1],[0.75,1],[0.5,1],[0.25,1],[0,1],[0,0.75],[0,0.5],[0,0.25]];outlineConnect=0;gradientColor=none;html=1;whiteSpace=wrap;fontSize=12;fontStyle=0;container=1;pointerEvents=0;collapsible=0;recursiveResize=0;shape=mxgraph.aws4.group;grIcon=mxgraph.aws4.group_security_group;grStroke=0;strokeColor=#7AA116;fillColor=#F2F6E8;verticalAlign=top;align=left;spacingLeft=30;fontColor=#248814;dashed=0;" vertex="1" parent="1">
          <mxGeometry x="40" y="260" width="630" height="140" as="geometry" />
        </mxCell>
        <mxCell id="jLUdtxUv7IMNn55z4BII-57" value="Bastion" style="sketch=0;outlineConnect=0;fontColor=#232F3E;gradientColor=none;strokeColor=#ffffff;fillColor=#232F3E;dashed=0;verticalLabelPosition=middle;verticalAlign=bottom;align=center;html=1;whiteSpace=wrap;fontSize=10;fontStyle=1;spacing=3;shape=mxgraph.aws4.productIcon;prIcon=mxgraph.aws4.ec2;" vertex="1" parent="jLUdtxUv7IMNn55z4BII-56">
          <mxGeometry x="124" y="20" width="80" height="100" as="geometry" />
        </mxCell>
        <mxCell id="jLUdtxUv7IMNn55z4BII-58" style="edgeStyle=orthogonalEdgeStyle;rounded=0;orthogonalLoop=1;jettySize=auto;html=1;entryX=0;entryY=0.5;entryDx=0;entryDy=0;entryPerimeter=0;" edge="1" parent="1" source="jLUdtxUv7IMNn55z4BII-50" target="jLUdtxUv7IMNn55z4BII-47">
          <mxGeometry relative="1" as="geometry" />
        </mxCell>
        <mxCell id="jLUdtxUv7IMNn55z4BII-59" value="TLS control" style="edgeLabel;html=1;align=center;verticalAlign=middle;resizable=0;points=[];" vertex="1" connectable="0" parent="jLUdtxUv7IMNn55z4BII-58">
          <mxGeometry x="-0.1562" y="1" relative="1" as="geometry">
            <mxPoint y="1" as="offset" />
          </mxGeometry>
        </mxCell>
        <mxCell id="jLUdtxUv7IMNn55z4BII-61" style="edgeStyle=orthogonalEdgeStyle;rounded=0;orthogonalLoop=1;jettySize=auto;html=1;" edge="1" parent="1" source="jLUdtxUv7IMNn55z4BII-60" target="jLUdtxUv7IMNn55z4BII-50">
          <mxGeometry relative="1" as="geometry" />
        </mxCell>
        <mxCell id="jLUdtxUv7IMNn55z4BII-60" value="Public Internet" style="outlineConnect=0;dashed=0;verticalLabelPosition=bottom;verticalAlign=top;align=center;html=1;shape=mxgraph.aws3.internet_gateway;fillColor=#F58534;gradientColor=none;" vertex="1" parent="1">
          <mxGeometry x="-650" y="483" width="70" height="72" as="geometry" />
        </mxCell>
        <mxCell id="jLUdtxUv7IMNn55z4BII-68" value="" style="group" vertex="1" connectable="0" parent="1">
          <mxGeometry x="-150" y="255" width="115" height="150" as="geometry" />
        </mxCell>
        <mxCell id="jLUdtxUv7IMNn55z4BII-66" value="" style="rounded=1;whiteSpace=wrap;html=1;" vertex="1" parent="jLUdtxUv7IMNn55z4BII-68">
          <mxGeometry width="115" height="150" as="geometry" />
        </mxCell>
        <mxCell id="jLUdtxUv7IMNn55z4BII-67" value="" style="group" vertex="1" connectable="0" parent="jLUdtxUv7IMNn55z4BII-68">
          <mxGeometry x="30.5" y="19" width="54" height="112" as="geometry" />
        </mxCell>
        <mxCell id="jLUdtxUv7IMNn55z4BII-64" value="" style="outlineConnect=0;dashed=0;verticalLabelPosition=bottom;verticalAlign=top;align=center;html=1;shape=mxgraph.aws3.internet_gateway;fillColor=#F58536;gradientColor=none;" vertex="1" parent="jLUdtxUv7IMNn55z4BII-67">
          <mxGeometry y="60" width="54" height="52" as="geometry" />
        </mxCell>
        <mxCell id="jLUdtxUv7IMNn55z4BII-65" value="" style="outlineConnect=0;dashed=0;verticalLabelPosition=bottom;verticalAlign=top;align=center;html=1;shape=mxgraph.aws3.route_table;fillColor=#F58536;gradientColor=none;" vertex="1" parent="jLUdtxUv7IMNn55z4BII-67">
          <mxGeometry width="50" height="50" as="geometry" />
        </mxCell>
        <mxCell id="jLUdtxUv7IMNn55z4BII-69" style="edgeStyle=orthogonalEdgeStyle;rounded=0;orthogonalLoop=1;jettySize=auto;html=1;" edge="1" parent="1" source="jLUdtxUv7IMNn55z4BII-66" target="jLUdtxUv7IMNn55z4BII-57">
          <mxGeometry relative="1" as="geometry" />
        </mxCell>
        <mxCell id="jLUdtxUv7IMNn55z4BII-71" style="edgeStyle=orthogonalEdgeStyle;rounded=0;orthogonalLoop=1;jettySize=auto;html=1;" edge="1" parent="1" source="jLUdtxUv7IMNn55z4BII-70" target="jLUdtxUv7IMNn55z4BII-66">
          <mxGeometry relative="1" as="geometry" />
        </mxCell>
        <mxCell id="jLUdtxUv7IMNn55z4BII-70" value="Authorization user" style="image;aspect=fixed;html=1;points=[];align=center;fontSize=12;image=img/lib/azure2/azure_stack/User_Subscriptions.svg;" vertex="1" parent="1">
          <mxGeometry x="-490" y="298.45" width="65" height="63.09" as="geometry" />
        </mxCell>
        <mxCell id="jLUdtxUv7IMNn55z4BII-74" style="edgeStyle=orthogonalEdgeStyle;rounded=0;orthogonalLoop=1;jettySize=auto;html=1;" edge="1" parent="1" source="jLUdtxUv7IMNn55z4BII-73" target="jLUdtxUv7IMNn55z4BII-54">
          <mxGeometry relative="1" as="geometry" />
        </mxCell>
        <mxCell id="jLUdtxUv7IMNn55z4BII-75" value="Storage backend files" style="edgeLabel;html=1;align=center;verticalAlign=middle;resizable=0;points=[];" vertex="1" connectable="0" parent="jLUdtxUv7IMNn55z4BII-74">
          <mxGeometry x="-0.0982" relative="1" as="geometry">
            <mxPoint as="offset" />
          </mxGeometry>
        </mxCell>
        <mxCell id="jLUdtxUv7IMNn55z4BII-73" value="Terraform scripts to provision infra" style="shape=image;verticalLabelPosition=bottom;labelBackgroundColor=default;verticalAlign=top;aspect=fixed;imageAspect=0;image=data:image/png,iVBORw0KGgoAAAANSUhEUgAAAgQAAACuCAYAAABJGhU3AAAKrmlDQ1BJQ0MgUHJvZmlsZQAASImVlwdUU9kWhs+9N52EAAkISAm9CVIEAkgJPRRBOohKSAKEEkIggNiRwREcCyoiWEZgBETBUSkyVixYEAELFnRABgVlHCzYUHkXWARn3nrvrbezzjpf9t3nP/vudc5a+wJAoXNEomRYDoAUYYY4yMuVEREZxcAPAwj9KQJzYMvhpotYgYF+ALWZ+e/2/h4ai9pt00mtf3/+X02ex0/nAgAFohzLS+emoHwSHaNckTgDAKQS9etkZYgm+SrKdDGaIMq9kxw/zaOTHDvFGMxUTEiQG8rKABDIHI44HgCyLupnZHLjUR2yO8rmQp5AiDL6HzilpKTyUEb3BYZojAjlSX1m7Hc68X/TjJVqcjjxUp5+lykjuAvSRcmcFf9nOf63pSRLZvYwQAc5QewdNDmjNfsjKdVXysLYRQEzLOBNxU9xgsQ7dIa56W5RM5yeHMyeYR7H3Veqk7zIb4bjBJ7SGEEGO2SG+ekewTMsTg2S7hsndmPNMEc8m4MkKVTqT+Czpfo5CSHhM5wpCFskzS0p2Hc2xk3qF0uCpO/CF3q5zu7rKa1DSvp37y5gS9dmJIR4S+vAmc2fL2TNaqZHSHPj8d09ZmNCpfGiDFfpXqLkQGk8P9lL6k/PDJauzUAP5+zaQGkNEzk+gTMMLIAN8AdBwBaYZ/CzJ88ocEsVrRAL4hMyGCz0lvEZbCHXbB7D0tzSGoDJOzt9JN7en7qLkBJh1idC62KHaiNls75YNKrJEgDl3lmfbhEA1DUANDZwJeLMad/kdQJYQAJUQAcqQAPoAENgCizR/ByAC/AAPiAAhIBIsAxwQQJIAWKQBVaB9SAfFIJtYBcoBQdABagGR8Fx0AROgwvgCrgBOsFd8Aj0gUHwEoyC92AcgiA8RIFokAqkCelBJpAlxIScIA/IDwqCIqEYKB4SQhJoFbQBKoSKoFLoIFQD/Qqdgi5A16Au6AHUDw1Db6DPMAKTYTqsDuvD82EmzIJ94RB4KRwPp8E5cB68BS6By+EjcCN8Ab4B34X74JfwGAIQGUQJ0UJMESbihgQgUUgcIkbWIAVIMVKO1CEtSBtyG+lDRpBPGByGhmFgTDEOGG9MKIaLScOswWzGlGKqMY2YS5jbmH7MKOYbloJVw5pg7bFsbAQ2HpuFzccWYw9hG7CXsXexg9j3OBxOCWeAs8V54yJxibiVuM24fbh63HlcF24AN4bH41XwJnhHfACeg8/A5+P34I/gz+G78YP4jwQZgibBkuBJiCIICbmEYsJhwllCN+E5YZwoR9Qj2hMDiDziCuJWYiWxhXiLOEgcJ8mTDEiOpBBSImk9qYRUR7pM6iW9lZGR0Zaxk1ksI5BZJ1Mic0zmqky/zCeyAtmY7EaOJkvIW8hV5PPkB+S3FApFn+JCiaJkULZQaigXKU8oH2VpsmaybFme7FrZMtlG2W7ZV1QiVY/Koi6j5lCLqSeot6gjckQ5fTk3OY7cGrkyuVNyPXJj8jR5C/kA+RT5zfKH5a/JDyngFfQVPBR4CnkKFQoXFQZoCE2H5kbj0jbQKmmXaYN0HN2AzqYn0gvpR+kd9FFFBcUFimGK2YplimcU+5QQJX0ltlKy0lal40r3lD7PUZ/DmsOfs2lO3ZzuOR+U5yq7KPOVC5Trle8qf1ZhqHioJKlsV2lSeayKUTVWXayapbpf9bLqyFz6XIe53LkFc4/PfagGqxmrBamtVKtQa1cbU9dQ91IXqe9Rv6g+oqGk4aKRqLFT46zGsCZN00lToLlT85zmC4Yig8VIZpQwLjFGtdS0vLUkWge1OrTGtQ20Q7Vzteu1H+uQdJg6cTo7dVp1RnU1df11V+nW6j7UI+ox9RL0duu16X3QN9AP19+o36Q/ZKBswDbIMag16DWkGDobphmWG94xwhkxjZKM9hl1GsPG1sYJxmXGt0xgExsTgck+k6552Hl284Tzyuf1mJJNWaaZprWm/WZKZn5muWZNZq/m686Pmr99ftv8b+bW5snmleaPLBQsfCxyLVos3lgaW3ItyyzvWFGsPK3WWjVbvV5gsoC/YP+C+9Y0a3/rjdat1l9tbG3ENnU2w7a6tjG2e217mHRmIHMz86od1s7Vbq3dabtP9jb2GfbH7f9yMHVIcjjsMLTQYCF/YeXCAUdtR47jQcc+J4ZTjNPPTn3OWs4c53Lnpy46LjyXQy7PWUasRNYR1itXc1exa4PrBzd7t9Vu590Rdy/3AvcODwWPUI9Sjyee2p7xnrWeo17WXiu9zntjvX29t3v3sNXZXHYNe9TH1me1zyVfsm+wb6nvUz9jP7Ffiz/s7+O/w793kd4i4aKmABDADtgR8DjQIDAt8LfFuMWBi8sWPwuyCFoV1BZMC14efDj4fYhryNaQR6GGoZLQ1jBqWHRYTdiHcPfwovC+iPkRqyNuRKpGCiKbo/BRYVGHosaWeCzZtWQw2jo6P/reUoOl2UuvLVNdlrzszHLqcs7yEzHYmPCYwzFfOAGccs5YLDt2b+wo1427m/uS58LbyRvmO/KL+M/jHOOK4obiHeN3xA8nOCcUJ4wI3ASlgteJ3okHEj8kBSRVJU0khyfXpxBSYlJOCRWEScJLqRqp2aldIhNRvqgvzT5tV9qo2Fd8KB1KX5renEFHm6N2iaHkB0l/plNmWebHrLCsE9ny2cLs9hXGKzateJ7jmfPLSsxK7srWVVqr1q/qX81afXANtCZ2TetanbV5awfXea2rXk9an7T+Zq55blHuuw3hG1ry1PPW5Q384PVDbb5svji/Z6PDxgM/Yn4U/NixyWrTnk3fCngF1wvNC4sLv2zmbr7+k8VPJT9NbInb0rHVZuv+bbhtwm33tjtvry6SL8opGtjhv6NxJ2Nnwc53u5bvula8oPjAbtJuye6+Er+S5j26e7bt+VKaUHq3zLWsfq/a3k17P+zj7eve77K/7oD6gcIDn38W/Hz/oNfBxnL98uIKXEVmxbPKsMq2X5i/1BxSPVR46GuVsKqvOqj6Uo1tTc1htcNba+FaSe3wkegjnUfdjzbXmdYdrFeqLzwGjkmOvfg15td7x32Pt55gnqg7qXdybwOtoaARalzRONqU0NTXHNncdcrnVGuLQ0vDb2a/VZ3WOl12RvHM1rOks3lnJ87lnBs7Lzo/ciH+wkDr8tZHFyMu3rm0+FLHZd/LV694XrnYxmo7d9Xx6ulr9tdOXWdeb7phc6Ox3bq94ab1zYYOm47GW7a3mjvtOlu6Fnad7XbuvnDb/faVO+w7N+4uutt1L/Te/Z7onr77vPtDD5IfvH6Y+XD80bpebG/BY7nHxU/UnpT/bvR7fZ9N35l+9/72p8FPHw1wB17+kf7Hl8G8Z5Rnxc81n9cMWQ6dHvYc7nyx5MXgS9HL8ZH8P+X/3PvK8NXJv1z+ah+NGB18LX498WbzW5W3Ve8WvGsdCxx78j7l/fiHgo8qH6s/MT+1fQ7//Hw86wv+S8lXo68t33y/9U6kTEyIOGLOVCuAoAOOiwPgTRUAlEgAaJ0AkJZM99RTBk1/B0wR+E883XdPmQ0AFT0AhKwEwO8mAHtKAdBH9anRAAS6oH4XAFtZScdM/zvVq0+aBvqt4LQDgG7k9zdm+eAfNt3Hf5f3P2cgVf3b/C8HrwdVY5j3OwAAAGJlWElmTU0AKgAAAAgAAgESAAMAAAABAAEAAIdpAAQAAAABAAAAJgAAAAAAA5KGAAcAAAASAAAAUKACAAQAAAABAAACBKADAAQAAAABAAAArgAAAABBU0NJSQAAAFNjcmVlbnNob3SSOi6hAAACPWlUWHRYTUw6Y29tLmFkb2JlLnhtcAAAAAAAPHg6eG1wbWV0YSB4bWxuczp4PSJhZG9iZTpuczptZXRhLyIgeDp4bXB0az0iWE1QIENvcmUgNi4wLjAiPgogICA8cmRmOlJERiB4bWxuczpyZGY9Imh0dHA6Ly93d3cudzMub3JnLzE5OTkvMDIvMjItcmRmLXN5bnRheC1ucyMiPgogICAgICA8cmRmOkRlc2NyaXB0aW9uIHJkZjphYm91dD0iIgogICAgICAgICAgICB4bWxuczpleGlmPSJodHRwOi8vbnMuYWRvYmUuY29tL2V4aWYvMS4wLyIKICAgICAgICAgICAgeG1sbnM6dGlmZj0iaHR0cDovL25zLmFkb2JlLmNvbS90aWZmLzEuMC8iPgogICAgICAgICA8ZXhpZjpQaXhlbFlEaW1lbnNpb24+MTc0PC9leGlmOlBpeGVsWURpbWVuc2lvbj4KICAgICAgICAgPGV4aWY6VXNlckNvbW1lbnQ+U2NyZWVuc2hvdDwvZXhpZjpVc2VyQ29tbWVudD4KICAgICAgICAgPGV4aWY6UGl4ZWxYRGltZW5zaW9uPjUxNjwvZXhpZjpQaXhlbFhEaW1lbnNpb24+CiAgICAgICAgIDx0aWZmOk9yaWVudGF0aW9uPjE8L3RpZmY6T3JpZW50YXRpb24+CiAgICAgIDwvcmRmOkRlc2NyaXB0aW9uPgogICA8L3JkZjpSREY+CjwveDp4bXBtZXRhPgotU1XCAABAAElEQVR4Ae2dB5ic1XX3z2r7qndp1XuvoC7QiiLAAkw1BoxjAo6BNMdgDMb5cHDiONhOHFOCYyAk9N6LQCAJVdR776h3aaUts+27vyuuGA27M+/MzsxOOfd5Zmd25r63/N/73vO/555zbkaNSaJJEVAEFAFFQBFQBNIagUZp3XvtvCKgCCgCioAioAhYBJQQ6EBQBBQBRUARUAQUAVFCoINAEVAEFAFFQBFQBJQQ6BhQBBQBRUARUAQUAVFCoINAEVAEFAFFQBFQBJQQ6BhQBBQBRUARUAQUAYOA2hDoMFAEFAFFQBFQBBQBJQQ6BhQBRUARUAQUAUVANQQ6BhQBRUARUAQUAUXAIKBbBjoMFAFFQBFQBBQBRUAJgY4BRUARUAQUAUVAEVANgY4BRUARUAQUAUVAETAI6JaBDgNFQBFQBBQBRUARUEKgY0ARUAQUAUVAEVAEVEOgY0ARUAQUAUVAEVAEDAK6ZaDDQBFQBBQBRUARUASUEOgYUAQUAUVAEVAEFAHVEOgYUAQUAUVAEVAEFAGDgG4Z6DBQBBQBRUARUAQUASUEOgYUAUVAEVAEFAFFQDUEOgYUAUVAEVAEFAFFwCCgWwY6DBQBRUARUAQUAUVACYGOAUVAEVAEFAFFQBFQDYGOAUVAEVAEFAFFQBEwCOiWgQ4DRUARUAQUAUVAEVBCoGNAEVAEFAFFQBFQBFRDoGNAEVAEFAFFQBFQBAwCumWgw0ARUAQUAUVAEVAElBDoGFAEFAFFQBFQBBQB1RDoGFAEFAFFQBFQBBQBg4BuGegwUAQUAUVAEVAEFAElBDoGFAFFQBFQBBQBRUA1BDoGFAFFQBFQBBQBRcAgoFsGOgwUAUVAEVAEFAFFQAmBjgFFQBFQBBQBRUARUA2BjgFFQBFQBBQBRUARMAhkRRuFiooa2brJJ527ZkvjJrojEW18U7G85cuXy2uvvSZHjhyRAQMGyB133CHZ2dlnulpVVSUffvihfPbZZ1JWViZXXnmlXHrppWd+j9aHffv2yZ///Gc5fPiwbcdNN90kTZs2rbN42vvoo4/K/v37ZciQIXLttddK27ZtbX7auWrVKlm6dKns3btXSkpKJD8/X1q2bCkdO3aU4cOHS58+faRRI31G6gRYf1AEFIG4IhB1QlBWUiNvvlgsXbply8QLCqRztyzJzMyIa6e0suRCYMeOHfLKK6/Izp075aKLLpIf/vCHZxGC6upqK1ifffZZKS4ulq5du8aEEJw6dcqSjkWLFknPnj3lsssuC0oIyP/qq6/Kli1bbN6LL77YEgKIwpNPPikvvPCC7N69W8rLy4U+IPwhOnl5efJ3f/d38uMf/1hyc3OT62ZpaxUBRSBlEYg6IaiuEdm/t0o2rvPJujU+Of/CfBk9IV+at8iUDOUFKTuQ6tMxhCVCk1dFRYXU1JhBFJAqKyvP5EFjEKtEW0pLS+XEiRNWiAerx7WTazK+Gty0EyLwu9/9Tg4dOmQvz8nJsdoB8kEiIDWZmTwP+kAEw1d/UwQUgfgiEHVCQPOZzs28Lju2VsjLuyplxdJymTK1sfQfnCM5OY2UGMT3Hqdcbf6CFCGLYHbCmc6yEiePfz6+J4/Lz/8k8rj8p785+68rm+tI/oK8Xbt28sQTT1iiwlYBWwFsD7z//vt2+4P8V111ldx2223SoUMHgcgcP35c2JpgyyAr6+vHL7BttbXLtYVyXf/cd/TBfQ78je/dd7xrUgQUAUWgNgS+npFq+7Ve30ELMsTnq5GVS8pl++YKoynIk/PNNkLHztmSm8eEXa8K9OI0RgAhd+jQYVm7do3s2bPHCmC3T8+WwqBBg6RLly6GgOZYlNjTZ2ti5cqVNj+aiMaNG0ubNm2svUDfvn3PQhMCgOqf1fzmzZutEIcMDBs2TIYOHWpX/LQBbQKr/oKCAks2uObAgQP2c6tWreSBBx6Qc84556yy/f+hjGPHjsnGjRtl/fr11n4BoQ2BwJ4COwPaSTp69KgsW7bM1jdw4EBp0aKFbNq0yRKLkSNHyq5du2Tbtm3WTgGygi3E9u3b7Xvz5s1l8ODBdrvFYeLfDv2sCCgCikAMCcHZ4J44XiWfflgi61b5ZPykAhkxKlfadcgye6iGFSgxOBusNP4PAYkwdityoOAz3/snVPPz5s2V+++/39oe8L/bSkCAjhs3Tn7605/KpEmT7LWzZ8+Wf//3fzfXzLNC3K2YyXvLLbfIL37xC//i5eTJk/Kb3/xGNmzYYIkEZINrELyUM2bMGLslcO+9956xIfj1r399ZpVOYc2aNRMEc7C0f/8Befzxx87YUPh8PlsPtgW9e/e22oW/+Iu/sGVt2bJVfvnLX9o2oXlAw/Dxxx9b+wUI0DvvvCP/9m//Jt27d7c2EGvXrrVtpy/YLUycONFiMmHCBKvpCNYu/U0RUATSD4G4EQKkPnP67i8r5d3XimX9mnI5d2yeDBqWK63bZprJTVlB+g2/b/aYfXeEnP8qFkHPKh2h7xIqclb3/fr1s5qAJk2aWEGKYSKraDwS+J0VPYTizTfflFmzZtk8F1xwgf0NrQEvBGigcR+r9jfeeMMaFbK6xhiQFfqSJUssqWDVD0lBO8ALTYE/iXHtDKaiJ//LL78k//mf/2mv79y5s/To0cO2kZU/Xgq/+tWvpLCwUK655hpTfpXNB0bPP/+80b75LCmgHF6QFjwe2LaADFAWwp9tigULFlhMOnXqZDUPzhvCtVPfFQFFQBGIIyH4GuyyshpZs6LckoMNa32WGPQbmCNNm6vh4dcopecnVuQ/+9nPrFB0CCB4UcVjdOgShAAV+EMPPWSFIi59fIcg/Ku/+iurPkcNj/oeYc++Pdd369bNagN69eplBSpCFNdCVP7+CQKAayOaBoQongcYC6KGp6xwhb9/2e4zK/e33nrLGjDSLjwPICuQCL5HE3Hw4EFrkzB16uXuMktE2PJgm4P8119/vb3GaVHQBuCaefPNNwv9BINbb73VahbAh/YrITgDp35QBBSBrxBoEEJA3WZBI0cOVcmieWWyfUuFDByaI2Mm5kvvfjmqLUjj4YmgZXXunxB0CG4n8PgNocnKHf9/vncCmi0AjPvYT3f7+3yHgIcw4D2A9oD8qOQRmP7aCFcv+/9sOYwYMcL+DuH44IMPLCFAGEcjQQiwf6Bd2DtMmTJFsA0goXV4+umnLRbYAZSWlpxVJXYMbFecf/75dluCvrrEVsXkyZPtb5Ah7BHABBsFcKRsTYqAIqAIBCLQYITANYRARnuMJ8Lhg6ddFUeNL5Bx5+VJu/ZGW9BItxEcTunyzoqclTIGfC6xsn/mmWdk+vTpZ2kJEG4ENSL4D+p8hDx5UZmTIAq8ML5Dm/Dpp59aTcMf//hHeemll+w+O/vqV199tV1tu/p4R5CiwodMUK6/d4F/vvp8ply3DQIpYWXvEgQEEkOiT84+wv0OkWE7AGEfmCAYjgDxG+TJbV04TAKv0f8VAUVAEWhwQuBuQXl5jXy5vdLEMDghq5aWyqSLG8vIMXlmQv56MnN59T11EUA9T0Agf0KA4GdVj6Bzif1zBPyDDz4oW7duPSMwEXjYBbiEIGRL4Pvf/74V7u+++67dVmA7gX169tZZpeMNECzFQ5A6oR2sHe438PHHw33PO20NTLV9F5hH/1cEFIH0RiBhCAG3gXms3MzlG9dXGHJw3LgrlslFUxtLr745ZsWj2oJ0GKoIRYSdv49+bcIPdfu0adOshgDjQfbMcdNDnU9sAIwLXaJM9uiJDEhMAH775JNP5OGHH7ZGeBjvsa+OYWI0khPskBZ/chKsbAQ2GoPaEoLflVnb716+cwQrHsTGS3s0jyKgCCQeAglFCM7AY4hBaWmNLJpfJltN/ILxk/Jl3Pn5ZhshS7JzlBicwSmNPyD4MfBDwGFcd/vtt9v9fowP8ShA6CNEEaYIWgQz76jmyd++fXtrrIdVPoIbtXw0CAHaCPbwqZeyOaMBt0G2A6qq2NIos3YMGPVhyMh2Bn2g3YQ5ZpuC/7EbwN6BhD1DoBdEsFvP9WhVIE1ch1cCWLlUF/Fwv+u7IqAIpCcCiUkIvroXLJgO7q+SD948aeMXTJycL4OGGzfF1pmSqW6K6TliTa8ReGgQOCgIwYvwfPnll636f82aNdaa3oEDKcC+ADc9tggwrkMIIyD5n+sR4PUhA7THJcofO3asdX3E3e9f//Vf5b333rNthXQQ6Ijv7777bhv/AKPA1atX21gGhDu+8MILrZaDrQ1IAkSCWAoFBaeDE7l6gr3TX85SWLhwoSUT4LNu3TqLGUQIjYomRUARUAQCEUhoQuAai1E3ZyPs/rJCBizNtRoDvBGat2xkJnTVGDickvUd4c5qGQM+BGCgepz/WenyOwIcgzk+Y1SH6p8IhP/1X/9lV/+spll9swomD6pyhPDixYvl7bfftpoAynNCnK0EhHJhYSdDHI7YCIRcx8u/HbQRQz/a6bwS+N19R/v4n9+/973vWbuEmTNnWuKBYKY+2k576CPuhHz3gx/caokJbo3EX6A/rm30A2+B6667zo7zRo0yz7SPNvi3z//eo/EgFgPGluDAC8yIevjtb3/bbp/459fPioAioAiAQFIQAnerTp2skSVfGDdFc0bCsJF5xugwV3r2ybHHLJu5WFOSIoDF/A9+8APrYkfAn4yMr40H6VJWVrYUFRXZVTzCbvTo0ZYgsJrGhW7OnDlW7Y/FPZEEEZbYBfA/QhWhjScB6ng8EFDFI+AhD7gVXnLJJcaFsZkRnFX2CGPagPYBzQEJwUuQH45DZvV93nnn2evRKvAd2gYiBeIGScJ18Je//KUQHZF2sNLHS4B2cQ1tcmXg/UCEQwwkWcVTPvXRNs47wBURl0RShw7t5YYbbrARB/kN0lJbgpRActBWgA/bJZSHpmHq1KkWj9qu0+8UAUUgvRHIMKuRr/WdUcDi+LFqefCeg8aNkKhysZPSGBl26ppliEGujBidZ49bziEMsqakQwDXO4QWQ9GtxP07wfeo253/P6txhCvf43+PQGYVjLBFKPM95bEiZzXOqpw63L461/AdgpP8lEeiDK5DeCOU+Z0ySM5AkLLJT7nkZ5+e71iB853LzzWUg3aCMslLnbSbfJTh8nI9/SP+Am1zdbO1QX6XKM+VBU6UQ14Sgv+RRx6Rf/zHf7TCn4BN3/rWt2wb6Dt9ad269Zm+ujL1XRFQBBQBh0BSaQhco3knfgGnKWJjwHYCYZBxU2zdNstMkv459XOiI4BwC7aHj9BD+PHyT05wIuwCEwLaP1EHK3636vf/zX1GQNdWFr8jmP2FM9+RP1h5EACEeqjk+ldbTAH/aymvLq2Afz7XD+wFAtvsn08/KwKKgCLgj0AMCUHspbJZWMmpk9VC+ONdOytlzcpyuXhqE3s+gpIC/9usn9MNAbQOmhQBRUARCAeBGBICJqTYkwI6a7SxUnyiWpYvLpfGTRvJgCE5Rj0bn7rDAVvzKgKxRAAtCLYPHP+MzYDbTohlnVq2IqAIpA4CMSQE8QcJYlD19YF4higQ7AXVLq/0JQgsFvGBB4N0xiH+IzJ+NWKTcO2119rDjth6wF4AY0xNioAioAh4RSClCEFgp0tO1ciyRWXmFMVG0rtvjhQ0xk0xMFfq/g8RKCurNEF6Thq3u4NSVFRoTu6r3TI9dVFIj56hHcATgpcmRUARUAQiQSClCYHPnI+wYnGZbDOnKZ47Nt+8zIE13Yw1eD6hYCOBK3muKSurMr7wJSY4zX7j277bWLv7TMCcdsnTAW2pIqAIKAKKQFwRSGlCAJJsGRzYVynTPzglm9aVy7nj82XoCHMkbKcso1JNPVZQWVktBw6Umhj/h+Xzz/caP/gjxt2u0kSnO9tCP66jTCtTBBSBsxDADRVXUxcnArdW3EpJeJPgJYOHCFtBvPjM95oUgVgikPKEwIHn89XIpg0VsndPlaxf5ZNzxuXJ4GG50tKEQU6FbQS2B44f9xkCcFjmzt1nCcHBg/i/Y9ypSRFQBBoaATw/CIpFZE3CZnNK565du2z8CYgBhMA/poU7FwN7kMLCQhtoi9NAsRHB3dXFsWjofmn9qYNA2hACd8tOFlfLiqVlsmObz5yPkCujx+dJv4EmLK7xTkjWVOGrlo2bjsmMGXtlyZIDdqvAZ77TpAgoAomBgAufTXhqwlRDCohgSbAsAm6hMXCuoniHIOzRCGAbQvwNyAExLYg+SShrXi4yZmL0UFuRCgikHSHgprGNcORwtSyca+wLzGmKQ0ea/fXz8qVrj2yjqkuebQQmkL17S+Szz/aY8L17jfEgYWorzcSSCkNT+6AIJD8CPKMcrf3ss8/aA7g2b95so1tCAOpKXIO2gBdbCZAGyAMkYsOGDTJs2DAbebOu6/V7RSBSBNKSEDiwiHa4d3elHD5UJRvW+GR8Ub6MmZgvLVpmJrzR4cmTFeZ0v/3mwJ4d5qS8E0lNBDiel4mSyS9ZEpM2atshQ4bYVVyytFvbGV8EOMTq4YcftoSAcyqCEQEvLXOxJrAr0KQIRBuBtCYEgMlqurysxnoi7DKnKa5YUi6XXmmiHQ7NkawE1BZAYjZuOCZvvrVN5s/fb2LfJ79GYP78+XLPPffY/dRoD/BYlQchGDdunLz22ms2GFCs6tFykxcBYn88+uij9iRODAijkQhdzeFYGpI6GmhqGYEIpD0h8AekwixQVy1jG8GcqGe8ES64tLEUdjYWvzkN76ZYUVH91fbAbuNGuMt8Lj2z5+jfh2T87A43QjWaTCnZ2ptM2CZ7WyGM06Z9JI899pj1JohWf7AlwMhQPQ6ihaiW44+AEgJ/NMxnDHo4ZnnGxyX2jIQJRQX2mOV27bMMMciI+1YCboSHD5eZs+0Py0cffWmOyD1qjJDq3n8M6I7+qwgoAg2AAHv+f/jDH+zefzSrZ5uqRYuWxuhQXRCjiauWdRoBJQRBRsKeXZXyzqvFsm51ubUtGDA4x5ymiOVv7A0PcRc8dswna9YclZkz95hIgweMy1JFkNbqT4qAIpAoCMybN094RTvhWdC8ebO4L0yi3Q8tLzERUEIQ4r6Um2iHa1aUy25zmuLAYTn2mOU+/XOlmQmHHItoh9g0nDpVIRs3HrfxBObPPyD795+ynhEhmqo/KwKKQAIggBvhjBkzbNChcJrDNoALRISm0nkZsKXGi+84vIptA02KQCwQUELgAVWE9NEjVbJwjolfYMIgDxrmk1Hj8qVHH6KJRU9b4PNVGdeik9ZYEIPBbduKzf7j6ehlHpqpWRQBRSABEDh+/LisWLHCc0sgAt26dbNGqr1797ZCH+GP183JkydNwLHjJvroAcEbZ/jw4da7xXPhmlERCAMBJQRhgIWF/y6jKTh4oEo2rvNZbQHEoH0h0Q4jJwYQjkMmquD8BftMuOF9JorZcXP2QEXKGA2GAbFmVQSSHgGE9+7duz31A8Hfq1cvue+++2Ty5MmWDBC2mO9xUUQz4GIRFBeflCZNmtgARZ4K10yKQJgIKCEIEzCy46a43WgK9u+tktXLy+W8Cwpk2LlsI4Rv6ENI5eXLD8r77++U1auP2PDDVVWGIWhSBBSBpEQAQsCq3ksirsDVV18t3/nOdwSXQk2KQEMiEDNCUFMTf4v8eALJqr7kVLXxRCi3WoOVy3LkQuOm2Ktfjqdoh7glcSzx229vt4cQHT3qMysCJQLxvIdalyIQCwQ4r8BrkK38/Hw5//zzlQzE4kZomWEjEHVCkJeXIZMuLJDZM0rk8MGqlDeGq67OkOIT1fLFnFLZvL5CJkzOtxqDNu0yja/wN7cREPocQjRjxh55993txk7gZEyME8MeCQ14ASpSVKEYTEWaUK0SFwBDLC+JwC5MxpEeEEM9uICh2tWkCPgjQBAirxEJGYOcT6BJEUgEBKJOCHINIbj82iYywET6+3x6iaxe4ZMTx4jLnQjdjV0b0IgcMgTovTdOmm0EnxRdXCDDzTZC86/CIKMROHGi0hgbHZYPPthhTyPEYFDliVhjqv/93/+NOIALQn3NmjXy61//2hCsbZ5u8kUXXWT3bSMlBFQCIYDIaFIEIkUAMsy2gSZFIBEQiMlIJIAPJwgWds42kf/KZcHsUtm6yWdX0qja452oM16Ct6pSZPOGctljwiBv35ovN97a3LgSZZjVa5U5hGiXvPLKFuNGSJTB+KIQr/5H0isir/GqT0KwFxQUeC6iXbt2Mn78eI345hkxzRgLBFgoaFIEEgWBmBACOocAwld/7Hl50qN3tixbaKLtmdfO7RVSVhq/h+B0TfFV66JGLjV93LzBJxXGaBBCgDZgx45iOWi8CXQOSJThr+1QBBoWASUEDYu/1n42AjEjBK4a9tELO2dJm7aNpe/AbEMKymX54jLZZ04ZNNu+mhQBRUARUAQUAUUgARCIOSFwfcwxq2Qi/HUszJZ+g3JkyfxSWbnMJ0cPV+mK2YGk7ymDAEZlGB6yAkRjxJaGe0+WTrq2x6O9bqVcHyNNVwbY89m9HO7uHsSjP17rqE9/vdZRVz7w8ceKtjisGrJddbW3ru/dfW+oNjsc3fOOXUh9bJPq6iffc7/cPcvMzKpX/Jva6okbIXCVN2nWSIYMz5UuXbNlwBCfzP/cHCK0xmdV7C6PvisCyYIAkwEuZhxms2fPHvnyyy/NSZR7zTkUx4wR6Qn78BKJDq+GvLw8E4e+ubUq79q1q3Tq1MnaTtTXqMxNEqEwox2hJk3Koi+rVq0y7rPZMmLEiLNc4tzk5ybhuuqkHuoLlbDI37Fjh6xcuVLGjBkjXbp0CXoJ9RIauLi42Lbz8OHDNoLf0aNHLd6nTp2y3ibcE+dxQjuwL8EItFWrVoL9SPv27aVDhw72f/oZbsJbqLr6m5bS9Jtjj70m+kM7uaamJvR1CJpIhA2YcV8Zm4xTN0ZLS0utMS94gcNp75sCE/zo9DhljOIFgY1PJDj54+D66v9dbZ85uClUoDfKou2bNm2y/Rk+fIS9nwb+M8nLc+HlmXAFujoZa/v377fRIw8ePGgOnzts407wvJOHsTVo0CAZOXKkxS7UM+fKd++U4T/GiWvBi7qYVxj79I25pHv37raunj17Wq8pV0ak73EnBDSUbYTWbTJl1Pg86dWXbYQy65Gw2xjiYa2vSRFIdAQQCHv37pHZs2ebOBKfy9q1a2XXrl32YXXCiIeWh5sJwb2YgJhYeZiZbM855xzB4wFhiNtluJMHOBE3/+WXXw4KGfHvf/SjO6Rv3z615qOttP/jjz82XjAfGC+Y5XLZZZcJE41/wBwmv//7v/8zp26uq7Ot9HHs2LFy7bXX1uqFYSCxcf6XL18m7733nm0/E94TTzzxDUJA3rKyUjshbt682RIVsN6+fbv9jgBACAYmUCcAHO5gT/LH3h//zp07y9ChQ2XixIkWfwQfv3tJn3463RgIv1ILBhnG02WrbZOXcmj/v/zLv1hi4tpb13W4KF566aV2vHgRzozR/fv3mVDo8+0YhXQRQRHBBRGDiPhj5XCCcIAD5AASBS6DBw+WoqIi6xEUDk7+fUGI/u53v7PCs65xzvf08aqrrqoF29OlIRDp0zvvvGOfPzx9Hn74YSuIXbn0b/r06XZ8OWLo3xY+t2jRQm688UZLegN/c//7fBX2OWe8E44ab6atW7fKvn37bFhpxt1pQgepO00QIfg8MwMHDpTbb79dLr/88pDnT3AfuC94SVHP0qVLzXk2G88QN+dSjXs1eUluLHM/mEO+973v2fHsZWy4/gW+NwghsI0wcj87O0Pad8ySKZc3tlqDTz8skTkzS6S0hEk0sKn6vyLQ8AgwaaMFeP755+WFF14QhBQEgO9DTej+rYftb9myxU5oTz75pBVKTB482OEeXsNq/qmnnvIv/hufmdgnTJjwDUJAm1ktvvrqq1bQM+G5/iA8ysrKziqL2Poffvih8Zj57Kzv/f9hoiLuPqF4A90ymWC/+GKBPPPMM7YciAATHJMYn/2TqwvByyRJe5jo/bEOB3P/shFOrC5nzpwpf/7zn2XIkCF2QoXEsMJzgsX/Gv/PYP7000/7f3Xms3/7znxZxwc0Gm+88UYdv579Nav07mZFeMEFF5z9Q8B/1A9W3NMXX3zRal8QXOG0yxUJTozxOXPm2P6y8iWq4vXXX2/PXwhHWwH5oT0I07oS5TEepk6dagmJfz6wmjVrlr1f3De3IuccCMo+rWE5Tejo77Jly+xz4QS1f1l8RluElghS6E8EHZGaO3euOXL+I1mwYIHVYkE8HYa8B0uQFrCjDRCxu+++W9q0afONSxjj/P7JJ5/YuYDnD00Ogt/V9Y2LAr6ApK9fv94S65///Ody5ZVXWm1kQDZP/zYcIfBrHhqDzt2y5abbmsnw0bky7Z1TJsiPz0xGTLJ+GfWjIhAEASZxXqEe1iBF1PkTZfKQT5s2Tf7jP/5DFi5ceGZFUOdFIX5wDzwTG6tyyvzud78rd955lxHcfY1/urfVKn12q4a6qmSCRANAol7+Z2J+99137USPwA2cOFFPBhIC1+Zg9ZEHQsD1bI2Ql8mUlT3E5a233rKTpX9bXXv8v+MaBBFthAhEO7m+IGiY9NGKvP/++3Lvvfda8hRqpRUMg3Da6rUchBZbH/7Cy78e+gPmn376qTz++OP2+OVo4OZwYiwsWbLEhFhfbVfed911l0yZMiUszRZ9DdVftjS4J2goGJM8HzwbjB3IKELUP5EXQkDeQGyC1cfzjDBGAKOxAzuIHlorNGUQ9vrgB25sL/zpT3+ysSZ+/OMfW60EZbKogASg5Vi8eLGtm/yRJggEffnnf/5ni9u3vvWtbxAqL2UnBCFwDUVjMGxknnTrkSWL55cb+4JSExa4wmoM6oGVK17fFYGIEGBSYZJCVf7f//3fJuT0zpiQDoQokx51/exnP7N7kPW1L3AdZrJkEkLIUg8rrOeee84csT23zmN6mSCZbJmoQq2YXT28k58JmomW61m9vPbaa3ZbA1V/bRMf3wWuHBF+hYWFdm+0PhOzf9uCfUbgIXBQ2xLkikmV44gTJSEgwaS2VTljlHGJ5gXNBeSvNpyj0RfuBVtlCMxbb71VbrvttrC1BXW1gzajKUKQ0k9W2GiIEJxosmojE9w38gcS2rrqcN+jCWNFzpYf5ADiyfNA/dHEjra99NJLFiOIPmQD4kndEOFoJdoM6UbjyFYfWq9wnlvakVCEwAHTomWWFE3JlN79c2TR3FJZvsS4Ke6pEl955AzKla3vikA4CPCQIaAhAqiWA4VWOGV5yYvAZoXCg/xP//SQ2YccEPZDXVs9TJaoft2+KnXQl9omWHc9kySrM/IErrxcnrreIROsuCEDEI9FixaFjO/vJmI3iSGMUemy7UB58Uq0+f7777dbN2x7hNv3WLUTQgAWGRmNzqqCMQoZ+OMf/2hJKyrkeCSei0ceecSSv3vuuccKvPrWS18grGhsKJ+tOYQcwruuBCGAfCJcsbPwmqhrw4YN8otf/MIa7FEG38UiYTj729/+1pIcCGesCC7POfYV2BVBCgK37EL1LSEJAY3OysowmoJsads2U/oOyJHFX5TJmhXlaXE+Qqibpr/HDwGEIipuQivHmgy4XjH5sVLF6PChhx6y6kz3W6TvqBS/+OILu/plEmQSDZXoO4I4EkKAjQQrFVZHoYiHawd7rvTdrcozM7Psfj7qXLfd4fLG+h2MELC9e/eW7mbfPhEShACBZ7jiWQnShlaAMYpQi2eibjRntOuBBx6IyliFGP7+97+3Gi3GUaiEEIQERbLaZoxDAGOdaBtGgvFIPHPY+GDMiHGjI9he6j6banq5Io55GPiNmxo3xZG5ctUNTeW6m5vKyDF50rgJT0RsmFwcu6dVRREBBn04A99L1Uw0rHKZ8FC3xzNhVYwBFiv6aCRWPqhcsRXwQgaoE21FJKpYrmWfF5Uoq7xgWgjyusTkT79d4vnHkA5r8IZI8+bNs7YdkKlESI4Q+LeF+4oK+n/+53/iTgZcOyAF1A9x5pmpb2IMYGXvhQxQF+PLaQjqW3cqXM+YwJ4AjaDXZ8/1O6EJwZlGNjrtpjh6fL585xaIQTMT9dAcM5zjcui7IhB9BBBq7H3zcMVKlRis1UyIGCShQm2IhFqTlVc0Jnkv7UcbgXDxT1iCY53dEGp72oLhFyvWREhoTrAh8E94Ezz66KPWq8D/+3h/ZoxiyIgQaogEIQi2rdAQbWrIOtG2RWKjkLBbBrWBmWWMDjt2ypZWbbKkD9sI80plwZwyObAP38zartDvFIHIEUCViPFPOPt9aCnYt8O6Hj931N0YR6GaZPLebozqTrtIedNwsUrlhStRvBMrY4RhvFbICGAmdtzIXAI/Aglh8e9PTDC2RE0N1rxwq+R/VtG8IBC0G9zRckCuwtV2cD3+57wwbvRPTiNVm1YK8hgOgazNSNC/Lj6TBzJAH/3T22+/bffbw6nPXQ9GrkzwRK3NWGeFHsk9x0If47+f/OQncSdw3Fuvmi/X/1R+Bwu2vSBJBETzmpKKELhOcVhQ1+7Z0r5DlgwcmiszPy6RFcbw8NQpb5OsK0ffFYFgCLA6RIB7TQgmjNBuvvlmG3CI1S0TLUKDCRYiwBYEluCoeVHJh0pY6dMOLN6j5XEQqk73O/WhcoxE2LgywnlHkAfuA7MH2r17d0sSIAdYaWMs5SI9oj0gbgP5IA0IOYQnhne02+crt9sXkDGMrdD4YLnuRZXK9RAUjNqKiorOEnIXX3yxNTQNJAT8j4vcs88+e9b2R1040Cfc0ehPKJwhJf6RHFmVv/7662GtjMGGciZNmmSDDIEl49Rhj5YGozeM+jBMw3bDn4jV1Q++RwhBoAn2AxmOd6KdYBh4T+LdjkSoDxzY5gyX2CUlIQBw89xJXn6GCX+cK916mmiHi3Ll43dPmckgEW6HtiHZEUAQMyF6ERz0lUmVwEJ///d/X2e4UiIRItyISvjggw9aIzAvak78lFnhEpEs1onJFNX0gAED7MROABpW37FKCCiwIyAT+A0bNuysqljd4Np2ww03WHuCZs3QuJiHP8yEceD5559vg+oggPGyCCWAqYLVMgIS8gbhc4nIfbxqSxAUIkf620PUlo/vWKETlW/48OF1Zanze7ayIJheE9oFcCZIDmMw2MoRzCFOWMYj5L2svsETwznaFA9CAGHlmbjiiivklltusUQx2mSA8ckL7PB4gUBBSukfhAyXRfobjhaxtvtFu3lBat08QT1oy6ibIFrUxVj0OifRPq95XZuSlhC4DvBe0LiRTDg/X3r1yZGjR6osWfD/XT8rAuEigBsXqmIvCQF6ySWXmNDAP/qGarm265nE/uEf/sFa/TOph0q0BbelWBICJiMEWf/+/eW6666Tq6++Wrob8hILrYSb+IgIWGRW3jfddJOMHz/e1s9v/on/o9VvymJCJ1Qw+6uEoA2V0FiwHwtB9CcEoa6L9e8IX1w5vZAO2oKgQavxm9/8xpK9UO1DYwBpINQwApFoil40BeCE4Srhh2Mxdmg3RAYPHJ45F3oYDVG0Ev2FqGHQSmRGInyOGjXKepy0bdvW/kYehC0C+le/+pWNWhqo3fLSHu4LhBsNEWcf8BxADiECzZu3MBieDk4G4SDgFAsJgkN5IbNsl6UlIQD4DLNq6FCYZV5+0d3M3BIwv3i5RymbJ3CyTaWORrtvMHKv/tysHHDx8d/7DoUt7J+zArwQAowbmXg4HyAWCSLQp08f24drrrnGxmBnoopFQqWPgB83bpwlHmyxoPaP9v0L1na0H0WGiHghBAhBtnoQdImUIAKQGi9CmnYzRu+8805PZMC/n90NKUSjwnaLF9dPBBdaAsZstL1DIClsd3DviOjJGIqm9goCAwngWWBcEiIaQoAGi3EbmCAFPPMQaLd6D8xT1/+s+nkOIAEQNYgAZDU/v6BWmcWig+cfDQ8LFS/jEe2jF+Lg38aU0BC4Dp0W/l+vMNxZCc1bGKOuE+yFupzp9Z6bm2kGblPDbGMzyacimhACL+p8JgVWK4Hx0ENhwgTDqoNJKNQ+H5P+7t177MMdTcHJSqtXr152pcWkxsmGwdTIofoU6ncm23PPPVcgHazuULvWNtGGKqe+v4M5B8+AZagJkxUW2wVeVOb1bVc410NSsIvwugJE8IwZExmhZFxgc0CQoFCJsexOUowWIWCMQGggANdf/x0jqCdbwR3NZwE1PQIXzQZEAMIOAQmVGEsIdgxfIe2hEm2GRFAHiwiIAFoH5pFQCQ0VmgS0IV4Igdex4V9vShEC/47xuaBxhkycnG+3FJYtKpOd24wVbVnDsALISjQHcGBfa/uf4E6FhY1l9Oh2Zv+0g7Rp7d3atLby0uU7iKOX1RB4MFmh+uahDjdBJBDArKaCJQjB4cOHzGqw+owKMVj+UL85EnPhhRearYFrzMFKE+wqKNR1kf5OHyFMbENwaE2/fv08TbaR1uflOiZw7l0oMkZZEMP67hF7aVM4eSAEWNaHIjSuTIgYRxpHkljNciIkcTFCCRl+p22B7qOR1Ms1aABGjx5t7SwQ1j169PAkPMOpj3kZcs7BQLyzGg8noU3zSqQhGdjDcA5E585dTF++XsCGqpPnlrZBQmKVYldyrFocRrmZmUYgdjZGGq1MtEMTBnmZOWZ5iXnt38tJUmEUlGRZIR+tWuWZwd1WJk7oIIMGtzT7Ubm1qqKSrGtxaW51dZXnIC9MJjB2L6uJwMbD+L0QAiZ9Jtiqqsp6EwL2RtkbZlJCVcmKI1YTDNigBWAlxAl5HPXM9kQiJHDwQgjAHkLgRVsUz36xQmTbwAsh4D507969XgsS1NmM8VCaEtpDHq+2DXVhxphE+KNNgkhiwMk9oy+xSGggWLmHSwZoSzhtgjywJQEhDYcMuD6HUxf3wsv4cGXzntKEgA4yfjA6JG5Bx06ZMmBojsybZc5HWGzcFE9Wh3UzKS/RU35+ltn3aikXXtjJGKe0MfuzeWbCj81DlOhYRNo+HiIvK0fK5wGFuYfzoLp2MTkglEIl2sMKNdTqLFQ5tJE90fvuu8+qKiEykbQ7VD3ud8rHBRNjS9zlvPTVXRvr93BIEPjXF/to9wcDtnDGKPeiPomVuhdCQB20zYtLbbD2sL30l3/5l/bF50QaO8HanWi/hft8pzQhqKxgZVVtQx3n5jaSZi0yZfDwRtLduCkOH5Unn31kjlne4BPymak90e5lWO2BbXbp0sQcR9rZqPc6mD23fGNZnGkm/LCK0cwGAXzYvU5ACAsmQFZsCBn+95Io3+sKjzJZoXoVAHXVz+SAgRQuePGwmGe1xcqS1ZdXPOtqu35/NgLg6WXfmau47+EKhrNr42yZLM/3kC2u+mpU2KbAvoWVtKbIEGDe8DofuRpSmhAUF1fLB2+eNANZzOmJjaV9RwZ1hjRvmSljJuRLvwHZMvuzMvn80xI5uL/CgJd80hP5U1CQKUVFnYxqrbtRszU1D29oAxU3APS9fgggpIlXwEo4nFUntUIi2Af2kphkw324A8t1gqG+wiGw3GD/uzqD5dHfwkcg3riGM2YYp9HQqHglPOGjp1fUhUBKE4IaE8748KEqWWrsBtavqZDJU/KtZqBZc9i12Wc3IZCnXtNYBplthM+mnZKVS8utN4Kxi0n4hEYgLy/T+I23lGuv7WHcV9qa/5UIxPvGMfFxml+8TkKMd/8StT5whyTx4nO4q6FQe+GJ2m9tlyIQSwRSmhA44Iwtlmzd5JO9uypk5bJyOf+iAhPEKNtsJWSaVV2G9DYGhx06ZZnthDKZO7PU5j11EnWLKyFx3tkCwE6gW7cmxnWlk3EH6mgs3M+Ob544rdWWKALRQwDBzzbLoUOHZefOHbLdhJUmPCvxItC2oKaGIIRKrDwJ9hRJIJlQZevvikAyI5AWhMDdoNJSE91rXpls3eiTUebkxHPMUcpdzJkIGB02Mccsjz2vQHqaaIdLFpTJYvPatbNCysw1iZKIJ1BYWGDdCCdPLjT7s82MnYBqBRLl/mg7YocArpkcNjVr1iyZOXOmrF692oZzxngNoqBJEVAE6o9AWhECBxfbCNM/KDHbCD45d6zxkR6ZK4Vdso3Lyeloh1OuaCz9BmbL4i/KzTZCmezbXWlWE+7q+L+zf9e+fb4JHNPGGgwONm6ETZvmGEOh+LdFa1QE4o0A5zhwqt9zzz0nnOuANkCTIqAIRB+BtCQEeBRUVtbI9i0VxpiwUjas9clIoy0YOiJX2rTNMqtuthFypYOJYdB/0GmNweoV5mx4QySwS4hnKijIMu6Drc3WQKE5+KW1dSPEMFKTIpAOCHDa4AsvvCCPP/64bNmyxdOWQDrgon1UBGKBQJoSgq+hxFZg7cpy2f2lIQZGYzDaeB9gZGi3EZo0kiGGJHTuaojB4Bz5Ym6pzVMSh2OW2Qro27e5ialdaAMMdezI8a66PfD1nTv7UzhW0Gdfqf8lKgLEXvjss8/k6aefbnAyoOMrUUeJtiuaCKQ9IQBM7JCOmNU/tgNbN1fIMLOFMMkYHnbpdtpNsU27TBPDIF969s6WFUvKZc6MUvlyR4XZu4zmrThdFtsAHToUGIPBQhNuuJOJLdDYGBGGDl4T/ZYkX4k6aSffPQvWYgwGX3/9dXuYixdjwWBl1ec3HVf1QU+vTSYElBD43a0KE6Do4D7jVz6tUlYZb4RJF+XLhKICadGqkYnSZewLOmVLm3YmEuCwXJk1vcR6JBSf4Ljl6KjwGzfOsgaDl0/tJv36tzDxBbLUTsDv/iTqR+5/rH2mKT9a4yxRcfRvFx4AHKO7YMEC9QbwB0Y/KwIxREAJQQC4uBqaWDOyb0+lvPp8sQlxXC6XXNHEuCTmSl5+hmQbYoBnwo0/aCYjR+fZwEdrV/ukwoe6IDJiQCCh3r2bybe/3d2cvd3eGgwGNEv/TVAECOdaVFRkAxPxORYJIsCZA14PUIlFG+JdJl4FS5culT179niuGpzcK9RF0QqeE6oe/V0RSCYElBAEuVvmjBtrcLhn1zFrdDhxcoF07ZFlVPgmtK2JXzBwaK4hB1my0LgyzvmsxGwjVIqv3Hv8AmwC2rbNM3YCneSyy7qYYzQLzEozMlIRpBv6UwwRIIQsp/dxeE86CewYQmqL5sQ83Ay9hMCFBHBoEuc0cKoix9EGCyONtmXt2rXy0ksveTZSpI50TuFEyfRKytIZz0TtuxICD3em2JyHMNuEN9683idjJuYbzYDxQDDbB7gpNm1mwgYbewNOU1wwm0OTyu1piuWGGNSV0AhABIYPb2vO3+4kAwe0kizj2aApMRBg7g8n9r6LlJcYrU/+ViB8Tpwolt27d3vqDAfvcBDOHXfcYU/IgwyEEuC4Mb722mueCYGnhsQxE+PTCd5QwprxWd9zMLjeqx0H7Yr1FlocoU7aqiLZZlRC4PF2Y0CIJ8L7bxTL+tXlMtoQg0FGQ9C2fabVFnTuli1T25rVovFGIPjRmuVl31jts/pv3TrPhBtuYQwGO8qoc9tLs+Z6CzzegrhlY0LzutpnMvYaIS9uHUjyisC0uPiEoCXwktAMcJwzhzaliyBie4rTMr0k8PR6ZkZd5R07dsyTtobrIWRen5+66tPvGwYBlUZh4m48oWTtKp+JYlgp61b65JxxeTLAxCrgJEVcFQcPM9EPjZtiX3PcMnYIHKxEQivQr19zeyLhOee0sdsDegjRaWyi8TfUijCcOiirefPmni5h1cRkScS8eJwg6KlRSZ4JAQaeXo7Q5V51797dnqiYLmSA21tQUCDhHGm8efNmu8IPR/PlP4zYvsENNFRyZFqfhVBIxf53niNe4SQlBOGg5Zf3xPFqWTS/VLZv9VmvA0Ih9+qbbe0LWrbOlHHn5ctJc9pijtlWIOExMG5cBxv0KDdXvQf8oEzIj16PXYUQcLAR0fTatm2bkH1JxkaBqxcVNSQAwRgrg85ExY5tEo6ypv9ecFq0aJHs37/fhD4vDLtLJ06csCd6ehEutKdFixb2FXZFekFUEfByvwIr1Eg3gYiE8T/bCPv3Vln3w5eeOSEfvnVSdpn4BFUmCiI2AS1ame2Er6IK8t60abZRpSkZCAPiBsvao0cPTypZ9md37dplY+trTP3o3S5WmrxCJSY9BGKssffSllBtjebvGFF269bN8xbJqlWrZNq0aWHbEoAvwaHmzJnjqflsF0A6WrZs6Sm/ZoodAl6fIf8WKCHwRyPCz+VlNbJzW4V89M4peeaJ4zLbBC46WRz61LUIq9PL4oAA+9FeJ7W9e/fKu+++Kzt27IhayxByhO1Nx2N6mci87pFDBNiyCRcnTk30uoJKNDLAIAMfbCe8bgFgQ/CnP/3JHg7l1cAQbBcuXCi///3vPdsg5ObmWq8bCIumhkUgknGrhCBK94ytmtKSGuum+PxTx+XJR47bz14nnSg1Q4uJEgKsviAFXhLC6L333pPf/va3smnTpohWq0y++N6z14sF/P333y/XXXedzJ4920sTUioPE1k4e+SccYCWJpSWgGdx79598swzz1gh58WlMVGBBaNzzz03LFuXJUuWyN133y1PPvmkxauurQZwhOQSMvrOO++0waG8zmNs34wYMcIaFiYqdtquuhFQG4K6sYn4F45M5vhk7Azu+X+tjLFhaNVnxJXphTFBgD3aiRMnyvz58z2tJFmlPvXUU8Je7eWXXy7jx4+Xzp072/1tVk2s5JhoWZ1hnMWJfWgAmHjRLEAkeG3bts3u9ToDrosvvlh4pVNC2DVr1twc5NXGU7fXrVtnhRyr0j59+pxZNVdX11isjxw5bInW559/Lh999JHd3vG6SvbUgAbKNGDAAEsK3n//fU8toM9Ef/zJT35itQVjxowx56X0Fexl8AqA2B46dEg2btxoNQPgiibFa8J+gDYNGzbM6yWaL8EQUEIQoxti5jQzGdUYIRCjCrTYmCMwZcoUefbZZ63Q9lIZK06O5yXCHsIJoy+IBRbXjhAg6Jlk0QYUFxdbYsB1da3Ali1bZkP3enUx89LOZMjTtGkTG50RclAXNq4f4Pfyyy8LWBGYCCLBNeBLpEPORIB48X8oLYIrMxne8YTB3ZI9fi8eGa5P5F2+fLl9gS/7/ghzsKmPPQak4qqrrjIeVOEbLrq26Xv0EAj13NRWkxKC2lCJ0ncZGeG5fESpWi0mSgiw0rnooovkxRdfDMsYi4kVH3qvfvTBmou7F5qE9u3bB8uWcr9BpFhtooKGPIVKnH2wZs0a+wqVN5V+v/TSS02k08ny4YcfhiROtfUboQF20UhsYVxxxRWGXKhGNBp41rcM7m24pEBtCOqLul6fsgiwAiMksVdbglgAwd44K9x0S9gQsNrnDAdNdSOAq+tf//VfS8+ePevOFIdf2B7727/9W+v5EIfqtAoPCKD9CTcpIQgXMc2fNgigph83bpzcdNNNDRZjAB9wtATplthiGThwoLDPjQ1GQ6dIJtd4tXnSpEly11132TMc4lWnfz1s0UBK0FYkMk7+bU6Hz9yLcO+HEoJ0GBnax4gRwPXwxhtvtKSgdevWEZcT6YXs6eJDXpdFeKTlJsN1HFKEgSYamnAnNi/981pmJBOrl/qjlQdtCmP0Rz/6UUSBh+rTDray8ES49dZbNVJnfYCMwbW6ZRADULXI9EYAYyuCFP3N3/yN3H777TZErldBEi3kOJkPr4R0S/jaFxUVyXe/+13PHgdeMYJsXHPNNSmh4mY8Iph/+MMfyj333GPjAHiNT+AVr8B8PBd4KNx7772WEHiN7BlYjv4fWwTCnavUqDC290NLTwEEmFzZo/3pT39qDd0ee+wx60kQ61U7Wxa9evWSkSNHxmSFnAy3Bg0NRAzDwieeeKLehpqUh/cIZXbt2k0eeODnUQ0o1VCYIqAhOfSLrRaCEE2fPt16VkS7TXjQYGyLRgL3WrxowhU80W6TlvdNBCK5J0oIvomjfpOkCDAp8vJiWcvD4iWfg4Jy2TL4/ve/L0VFk+XVV1+RF154we7v40oYiXqOst1DyzvEg8m2e/fuMnbsWLngggvse4cOHc1vde/uUTftC5XIE26/A8vkel7h1BdYRjj/U1eHDh3k5z//uY3r8Ic//MHGavCCt2srbnVdunSxQgxtA9jiIod9Bp4kRJkMZmlPOeEm8IkXRq5ttJPxA+EZNWqUDVX8/PPP21gaxMlw4929u+uCvbu+8w6ZcjY11BHJFppXXKgvnHbW1gfKoL5Q5ZDH9bO2crx857Vf5CNFWp/rkyvHS9vCyZNhwEpZ37gjh6rk2SeP2+OIzdiIe+rWM0vue6iNNGkaerKOe+NSrEL8zAnQwgEuoRJugcOHD5epUy83E0ZkA4PHhroIRDR37lxZuXKljf6GqyF+3gSBCfR5dw8zgh91eH5+vp1UsdBGE9C/f3+7umOLomXLVuYsBW98nfCyn3zySahu20mIsi+77LKID59BsBCVcfv27UEnNfBhbxtSM3jw4KhErkMjQ9Cc119/3freb9261WoO+J76wJcXBADB2KlTJ6vRgQDwQsvjb6DIPcJVEewIysO1tSXKueSSSzwb7bHF88EHH3g6HZDVNbEEID3RTmCCZoUAQ0S8JD4Gwa84iItYGJCgwDFKGxA2aKe4f2xFYMNB9EECdeEKCrZ1YRWsD4cPH5bnnnvOai2CXU+78fAhIBfPRCSJ2BQ8F/S7tj76l0lbhgwZIhhn4u4abjpw4IAlXwQYC9YvygVXyFQkzwT9wJ5oxowZ9r4GqwsMOWQK245wTsVUQhDu3Q8jvxKCMMBK4qwIFlabRHljsuVF7HgmXX7jwXUkgEmWCZUJjweW4EW88z15NIVGoKqqWg4c2G81BTt37rRnGYAz+EGywJQDdni1atXakoA6ZH3oylIkBwICosoYhTwjxIhvAWEAO5Ibp5AUVv/YBUBU8CIA12ACKEVgSvtuKCGI4RBQQhBDcJOgaCZhl3QydUjE5h2sFePwsfUfo1ytGIaPYSpd4U0nmUo91r4oAnFCQCfXOAFtqlGsI8NacYsMt1S9Sje3U/XOar8UAUVAEVAEFIEwEFBCEAZYmlURUAQUAUVAEUhVBJQQpOqd1X4pAoqAIqAIKAJhIKCEIAywNKsioAgoAoqAIpCqCKQ2ITBuxcSBSHeXo1QdvNovRUARUAQUgeghkNKEIC8vQ3r1yZEOhZkmIET0QNOSFAFFQBFQBBSBVEMgpd0OCwoaSdGUAunYOUu+mFMq69f45NiRKnNyXKrdRu2PIqAIKAKKgCJQPwRSmhCI2TIoaNxIhp2TK126Z8uqZeWy9ItS2bTeJ6dOfh00pn4Q6tWKgCKgCCgCikDyI5DahOCr+0O8+jZtM2ViUb707pctK5eUyaIFZbJza4WJ5538N1F7oAgoAoqAIqAI1BeBtCAEDqTsnAzp0i1b2rbLlH4Dc2XxF2VGY1Am+/dyEI3Lpe+KgCKgCCgCikD6IZBWhMDd3rz8RtKrX460L8ySgUNyZN7MUllpthOKTygrcBjpuyKgCCgCikB6IZCWhIBbjCti02aNZPCwPOnaI1sGjyiXmZ+UyNaNbCOofUF6PQbaW0VAEVAEFIG0JQTu1jcyJ862aJkpE4x9wYAhuTLr4xKZ8ckp641gaIPLpu+KgCKgCCgCikBKI5D2hMDdXU79at0mU759QxMZMjJXZnx8SlYsLjfeCNXqpuhA0ndFQBFQBBSBlEVACUHArc3MzJA+/XOkU9dsGTayTGbPKJFtmyvkpLEvUMPDALD0X0VAEVAEFIGUQUAJQR23sqAgQ0aNz5NuPbNl+aIyWWK8EXZur5DSkhqpURODOlDTrxUBRUARUASSFQElBEHuHPELOhhPhMmXNLZeCcsWl8lK89qzkCXeRQAAArpJREFUq1LjFwTBTX9SBBQBRUARSD4ElBB4uGe55kyE3sZNEXLQf2COLJ5fJiuWlsuRQ8RARl2gxoceYNQsioAioAgoAgmMgBICjzfHuSkOGpYrnbtlCe9zTfyCdavLpayU+AVKCjxCqdkUAUVAEVAEEhABJQRh3hSMDlu1zpJzxmbaMMjLFpXLrOkl8qWxL9BDk8IEU7MrAoqAIqAIJAwCSggivBVZWcZNsW2WOU0xU/qbaIezPy2V+bNK5OgRjXYYIaR6mSKgCCgCikADIqCEoJ7gQww6d8mWa2/KkqHDc2T6RyWyblW5lJxSV4R6QquXKwKKgCKgCMQRASUEUQI7xxycNNCEQe5sDk9auvB0/AK1K4gSuFqMIqAIKAKKQMwRyKgxKea1pFkFVVU18uWOStmywWdCIhdIXr4aHKbZENDuKgKKgCKQdAgoIUi6W6YNVgQUAUVAEVAEoo9Ao+gXqSUqAoqAIqAIKAKKQLIhoIQg2e6YtlcRUAQUAUVAEYgBAkoIYgCqFqkIKAKKgCKgCCQbAkoIku2OaXsVAUVAEVAEFIEYIKCEIAagapGKgCKgCCgCikCyIaCEINnumLZXEVAEFAFFQBGIAQJKCGIAqhapCCgCioAioAgkGwJKCJLtjml7FQFFQBFQBBSBGCCghCAGoGqRioAioAgoAopAsiGghCDZ7pi2VxFQBBQBRUARiAECSghiAKoWqQgoAoqAIqAIJBsCSgiS7Y5pexUBRUARUAQUgRggoIQgBqBqkYqAIqAIKAKKQLIhoIQg2e6YtlcRUAQUAUVAEYgBAkoIYgCqFqkIKAKKgCKgCCQbAkoIku2OaXsVAUVAEVAEFIEYIKCEIAagapGKgCKgCCgCikCyIaCEINnumLZXEVAEFAFFQBGIAQJKCGIAqhapCCgCioAioAgkGwL/H1aZaM/dXB6nAAAAAElFTkSuQmCC;" vertex="1" parent="1">
          <mxGeometry x="-531.64" y="95" width="148.28" height="50" as="geometry" />
        </mxCell>
        <mxCell id="jLUdtxUv7IMNn55z4BII-77" style="edgeStyle=orthogonalEdgeStyle;rounded=0;orthogonalLoop=1;jettySize=auto;html=1;" edge="1" parent="1" source="jLUdtxUv7IMNn55z4BII-76" target="jLUdtxUv7IMNn55z4BII-1">
          <mxGeometry relative="1" as="geometry" />
        </mxCell>
        <mxCell id="jLUdtxUv7IMNn55z4BII-86" value="Build and Push the Docker Container" style="edgeStyle=orthogonalEdgeStyle;rounded=0;orthogonalLoop=1;jettySize=auto;html=1;" edge="1" parent="1" source="jLUdtxUv7IMNn55z4BII-76" target="jLUdtxUv7IMNn55z4BII-85">
          <mxGeometry relative="1" as="geometry" />
        </mxCell>
        <mxCell id="jLUdtxUv7IMNn55z4BII-76" value="Github (include github actions)" style="dashed=0;outlineConnect=0;html=1;align=center;labelPosition=center;verticalLabelPosition=bottom;verticalAlign=top;shape=mxgraph.weblogos.github" vertex="1" parent="1">
          <mxGeometry x="-480" y="662.5" width="75" height="75" as="geometry" />
        </mxCell>
        <mxCell id="jLUdtxUv7IMNn55z4BII-78" value="Kubnernetes Cluster" style="text;html=1;strokeColor=none;fillColor=none;align=center;verticalAlign=middle;whiteSpace=wrap;rounded=0;fontStyle=1" vertex="1" parent="1">
          <mxGeometry x="30" y="830" width="160" height="30" as="geometry" />
        </mxCell>
        <mxCell id="jLUdtxUv7IMNn55z4BII-79" value="Cloudwatch Logs" style="sketch=0;points=[[0,0,0],[0.25,0,0],[0.5,0,0],[0.75,0,0],[1,0,0],[0,1,0],[0.25,1,0],[0.5,1,0],[0.75,1,0],[1,1,0],[0,0.25,0],[0,0.5,0],[0,0.75,0],[1,0.25,0],[1,0.5,0],[1,0.75,0]];points=[[0,0,0],[0.25,0,0],[0.5,0,0],[0.75,0,0],[1,0,0],[0,1,0],[0.25,1,0],[0.5,1,0],[0.75,1,0],[1,1,0],[0,0.25,0],[0,0.5,0],[0,0.75,0],[1,0.25,0],[1,0.5,0],[1,0.75,0]];outlineConnect=0;fontColor=#232F3E;fillColor=#E7157B;strokeColor=#ffffff;dashed=0;verticalLabelPosition=bottom;verticalAlign=top;align=center;html=1;fontSize=12;fontStyle=0;aspect=fixed;shape=mxgraph.aws4.resourceIcon;resIcon=mxgraph.aws4.cloudwatch_2;" vertex="1" parent="1">
          <mxGeometry x="255" y="67" width="78" height="78" as="geometry" />
        </mxCell>
        <mxCell id="jLUdtxUv7IMNn55z4BII-81" value="Log forwarder" style="edgeStyle=orthogonalEdgeStyle;orthogonalLoop=1;jettySize=auto;html=1;entryX=1;entryY=0.5;entryDx=0;entryDy=0;entryPerimeter=0;curved=1;" edge="1" parent="1" source="jLUdtxUv7IMNn55z4BII-8" target="jLUdtxUv7IMNn55z4BII-79">
          <mxGeometry x="-0.0013" y="60" relative="1" as="geometry">
            <Array as="points">
              <mxPoint x="610" y="106" />
            </Array>
            <mxPoint as="offset" />
          </mxGeometry>
        </mxCell>
        <mxCell id="jLUdtxUv7IMNn55z4BII-83" style="edgeStyle=orthogonalEdgeStyle;rounded=0;orthogonalLoop=1;jettySize=auto;html=1;" edge="1" parent="1" source="jLUdtxUv7IMNn55z4BII-82" target="jLUdtxUv7IMNn55z4BII-76">
          <mxGeometry relative="1" as="geometry" />
        </mxCell>
        <mxCell id="jLUdtxUv7IMNn55z4BII-82" value="Developers" style="fontColor=#0066CC;verticalAlign=top;verticalLabelPosition=bottom;labelPosition=center;align=center;html=1;outlineConnect=0;fillColor=#CCCCCC;strokeColor=#6881B3;gradientColor=none;gradientDirection=north;strokeWidth=2;shape=mxgraph.networks.users;" vertex="1" parent="1">
          <mxGeometry x="-630" y="690" width="50" height="60" as="geometry" />
        </mxCell>
        <mxCell id="jLUdtxUv7IMNn55z4BII-85" value="Private Container" style="image;sketch=0;aspect=fixed;html=1;points=[];align=center;fontSize=12;image=img/lib/mscae/Docker.svg;" vertex="1" parent="1">
          <mxGeometry x="-475" y="851.7" width="65" height="53.3" as="geometry" />
        </mxCell>
        <mxCell id="jLUdtxUv7IMNn55z4BII-87" value="Pulling the images from private repo ( with secret)" style="edgeStyle=orthogonalEdgeStyle;orthogonalLoop=1;jettySize=auto;html=1;entryX=1.031;entryY=0.512;entryDx=0;entryDy=0;entryPerimeter=0;curved=1;" edge="1" parent="1" source="jLUdtxUv7IMNn55z4BII-8" target="jLUdtxUv7IMNn55z4BII-85">
          <mxGeometry relative="1" as="geometry">
            <Array as="points">
              <mxPoint x="375" y="940" />
              <mxPoint x="-408" y="940" />
            </Array>
          </mxGeometry>
        </mxCell>
      </root>
    </mxGraphModel>
  </diagram>
</mxfile>
